<?xml version="1.0" encoding="utf-8"?>
<!-- Generator: Adobe Illustrator 22.0.0, SVG Export Plug-In . SVG Version: 6.00 Build 0)  -->
<svg version="1.1" id="Calque_1" xmlns="http://www.w3.org/2000/svg" xmlns:xlink="http://www.w3.org/1999/xlink" x="0px" y="0px"
	 viewBox="0 0 21 21" style="enable-background:new 0 0 21 21;" xml:space="preserve">
<style type="text/css">
	.st0{fill:#9B9B9B;}
</style>
<path class="st0" d="M20.7,19.8L16,7.1c-0.4-1-1.2-1.3-1.8-0.6c-0.1,0.2-0.2,0.4-0.3,0.6l-1.1,3.1L9.4,1C9.1,0.4,8.7,0,8.2,0l0,0
	c-0.4,0-0.8,0.4-1,1l-7,18.8c-0.1,0.4-0.1,0.8,0.1,1s0.4,0.2,0.6-0.2l0,0l7-18.8C8,1.7,8.1,1.5,8.3,1.5l0,0c0.1,0,0.3,0.2,0.4,0.4
	l3.7,10c0.1,0.4,0.3,0.4,0.6,0.2l0.1-0.2l1.5-4c0.2-0.4,0.4-0.4,0.8-0.2l0.1,0.2l4.7,12.7c0.1,0.4,0.3,0.4,0.6,0.2
	C20.9,20.5,20.8,20,20.7,19.8z"/>
</svg>
