<?xml version="1.0" encoding="utf-8"?>
<!-- Generator: Adobe Illustrator 22.0.0, SVG Export Plug-In . SVG Version: 6.00 Build 0)  -->
<svg version="1.1" id="Calque_1" xmlns="http://www.w3.org/2000/svg" xmlns:xlink="http://www.w3.org/1999/xlink" x="0px" y="0px"
	 viewBox="0 0 21 21" style="enable-background:new 0 0 21 21;" xml:space="preserve">
<style type="text/css">
	.st0{fill:#9B9B9B;}
</style>
<g>
	<path class="st0" d="M6.6,14.8c-0.3-0.3-0.7-0.3-0.9,0l0,0c-0.1,0.1-0.2,0.2-0.2,0.3v0.1c0,0.2,0.1,0.3,0.2,0.5
		c0.3,0.2,0.7,0.2,0.9,0C6.8,15.5,6.8,15.1,6.6,14.8z"/>
	<path class="st0" d="M6.1,17.1c-0.4,0-0.7,0.3-0.7,0.7s0.3,0.7,0.7,0.7c0.4,0,0.7-0.3,0.7-0.7v-0.1C6.7,17.4,6.4,17.1,6.1,17.1z"/>
	<path class="st0" d="M6.1,19.6c-0.4,0-0.7,0.3-0.7,0.7v0.1c0,0.1,0.1,0.3,0.2,0.3c0.3,0.3,0.7,0.3,0.9,0c0.3-0.3,0.3-0.7,0-0.9
		C6.4,19.6,6.3,19.6,6.1,19.6z"/>
	<path class="st0" d="M11.2,14.9c-0.3-0.3-0.7-0.3-0.9,0c-0.3,0.3-0.3,0.7,0,0.9c0.3,0.2,0.7,0.2,0.9,0c0.1-0.1,0.2-0.3,0.2-0.5
		v-0.1C11.3,15.1,11.3,14.9,11.2,14.9z"/>
	<path class="st0" d="M10.6,17.1c-0.4,0-0.7,0.3-0.7,0.7s0.3,0.7,0.7,0.7c0.4,0,0.7-0.3,0.7-0.7v-0.1C11.3,17.4,11,17.1,10.6,17.1z"
		/>
	<path class="st0" d="M10.6,19.6c-0.4,0-0.7,0.3-0.7,0.7c0,0.2,0.1,0.3,0.2,0.5c0.3,0.2,0.7,0.2,0.9,0c0.1-0.1,0.2-0.2,0.2-0.3v-0.1
		C11.4,19.9,11.1,19.6,10.6,19.6z"/>
	<path class="st0" d="M15.7,14.8c-0.3-0.3-0.7-0.3-0.9,0c-0.1,0.1-0.2,0.2-0.2,0.3v0.1c0,0.2,0.1,0.3,0.2,0.5c0.3,0.2,0.7,0.2,0.9,0
		c0.1-0.1,0.2-0.3,0.2-0.5v-0.1C15.8,15.1,15.8,14.9,15.7,14.8z"/>
	<path class="st0" d="M15.2,18.5c0.4,0,0.7-0.3,0.7-0.7c0-0.4-0.3-0.7-0.7-0.7c-0.4,0-0.7,0.3-0.7,0.7v0.1
		C14.6,18.3,14.9,18.5,15.2,18.5z"/>
	<path class="st0" d="M15.2,19.6c-0.4,0-0.7,0.3-0.7,0.7l0,0v0.1c0,0.1,0.1,0.3,0.2,0.3c0.3,0.2,0.7,0.2,0.9,0
		c0.1-0.1,0.2-0.2,0.2-0.3v-0.1C15.9,19.9,15.6,19.6,15.2,19.6L15.2,19.6z"/>
	<path class="st0" d="M16.2,3.1c-0.1,0-0.3,0-0.4,0h-0.2L15.5,3c-1.1-1.8-3.2-2.9-5.3-3C7.3,0,4.8,2,4,4.7L3.9,4.9H3.7
		c-2,0.2-3.5,2-3.4,3.9c-0.1,2.2,1.5,4,3.7,4.1h0.1H16c2.7-0.1,4.7-2.3,4.7-4.9C20.9,5.3,18.9,3.1,16.2,3.1z M16.2,11.9h-12
		c-1.3,0-2.8-1.1-2.8-3.1C1.3,7.3,2.4,6,4,5.9c0.1,0,0.2,0,0.3,0h0.4l0.1-0.4C5.3,2.9,7.6,1,10.1,1c2,0,3.8,1.1,4.7,2.9l0.2,0.3
		l0.4-0.1C15.7,4.1,16,4,16.2,4c2.1,0.1,3.8,1.8,3.7,3.9C19.9,10.1,18.2,11.8,16.2,11.9z"/>
</g>
</svg>
