<?xml version="1.0" encoding="utf-8"?>
<!-- Generator: Adobe Illustrator 22.0.0, SVG Export Plug-In . SVG Version: 6.00 Build 0)  -->
<svg version="1.1" id="Calque_1" xmlns="http://www.w3.org/2000/svg" xmlns:xlink="http://www.w3.org/1999/xlink" x="0px" y="0px"
	 viewBox="0 0 21 21" style="enable-background:new 0 0 21 21;" xml:space="preserve">
<style type="text/css">
	.st0{fill:#9B9B9B;}
</style>
<g>
	<path class="st0" d="M10.5,19.4c-0.1,0-0.2,0-0.2-0.1c-0.1,0-0.1,0-0.2,0l0,0c-0.5,0-0.9,0.4-0.9,0.9S9.5,21,10,21
		c0.1,0,0.1,0,0.2,0v0.2V21c0.5,0,0.9-0.4,0.9-0.9C11.1,19.9,10.9,19.5,10.5,19.4z"/>
	<path class="st0" d="M19.4,14.7C19.4,14.7,19.3,14.7,19.4,14.7c-0.2-0.1-0.4-0.1-0.5-0.1c-0.1,0-0.1,0-0.2,0
		c-0.2,0-0.4,0.2-0.5,0.4c0,0.1-0.1,0.1-0.1,0.2c-0.2,0.4-0.1,1,0.2,1.2c0.4,0.2,0.9,0.1,1.1-0.1l0.1-0.1c0-0.1,0.1-0.1,0.1-0.2
		C19.7,15.4,19.7,14.9,19.4,14.7z"/>
	<path class="st0" d="M11,1.6c0.1,0,0.2,0.1,0.4,0.1c0.1,0,0.1,0,0.2,0c0.5,0,0.9-0.2,1-0.7c0-0.5-0.2-0.9-0.7-1l0,0
		c-0.1,0-0.1,0-0.2,0c0,0,0,0-0.1,0c-0.5,0-0.9,0.4-0.9,0.9C10.5,1.1,10.6,1.5,11,1.6z"/>
	<path class="st0" d="M20.1,9.6c-0.5,0-0.9,0.4-0.9,0.9c0,0.1,0,0.1,0,0.2c0,0.5,0.4,0.9,0.9,0.9l0,0v0.2v-0.2
		c0.5,0,0.9-0.4,0.9-0.9c0-0.1,0-0.1,0-0.2C21.1,10,20.6,9.6,20.1,9.6z"/>
	<path class="st0" d="M1.6,10.3c0-0.1,0.1-0.2,0.1-0.2c0-0.1,0-0.1,0-0.2c0-0.5-0.4-0.9-0.7-1l0,0c0,0,0,0-0.1,0
		C0.4,8.8,0,9.1,0,9.6c0,0.1,0,0.1,0,0.2c0,0.5,0.4,0.9,0.9,1l0,0l0,0C1.1,10.7,1.5,10.6,1.6,10.3z"/>
	<path class="st0" d="M16.9,2.1c-0.1,0-0.1-0.1-0.2-0.1c-0.4-0.2-1-0.2-1.2,0.2c-0.2,0.4-0.2,1,0.2,1.2l0,0l0.1,0.1
		c0.4,0.2,1,0.2,1.2-0.1C17.3,3,17.3,2.3,16.9,2.1z"/>
	<path class="st0" d="M18.6,7.2c0.1,0.2,0.4,0.5,0.7,0.5c0.1,0,0.2,0,0.5,0c0.5-0.1,0.6-0.7,0.5-1.1c0-0.1-0.1-0.1-0.1-0.2
		c-0.1-0.4-0.5-0.5-0.9-0.5l0,0c-0.5,0-0.9,0.4-0.9,0.9c0,0.1,0,0.2,0.1,0.4C18.6,7,18.6,7,18.6,7.2z"/>
	<path class="st0" d="M2.6,14.3c-0.1-0.4-0.5-0.6-0.9-0.5c-0.1,0-0.1,0-0.2,0.1c-0.5,0.2-0.6,0.7-0.4,1.2c0,0.1,0.1,0.1,0.1,0.2
		c0.1,0.2,0.2,0.4,0.5,0.5c0.5,0.1,1-0.1,1.1-0.6c0.1-0.2,0-0.5,0-0.6L2.6,14.3z"/>
	<path class="st0" d="M6.7,2.5c0.1,0,0.1-0.1,0.2-0.1c0.5-0.2,0.6-0.7,0.5-1.1S6.7,0.6,6.3,0.7l0,0C6.2,0.7,6.2,0.9,6,0.9
		C5.8,1,5.7,1.1,5.5,1.4v0.1c0,0.1,0,0.4,0.1,0.5C5.8,2.6,6.3,2.7,6.7,2.5z"/>
	<path class="st0" d="M3.1,4.2C2.7,4,2.1,4,1.8,4.4c0,0.1-0.1,0.1-0.1,0.2C1.6,4.9,1.6,5.1,1.6,5.3c0,0,0,0,0,0.1
		c0,0.2,0.1,0.4,0.4,0.5c0.4,0.2,1,0.1,1.2-0.2c0-0.1,0.1-0.1,0.1-0.1C3.6,4.9,3.4,4.4,3.1,4.2z"/>
	<path class="st0" d="M5.8,17.9c-0.1,0-0.1-0.1-0.2-0.1c-0.4-0.2-1-0.1-1.2,0.2c-0.2,0.4-0.1,1,0.2,1.2c0,0,0.1,0,0.1,0.1
		c0,0,0.1,0,0.1,0.1c0.4,0.2,0.7,0.1,1-0.1c0.1,0,0.1-0.1,0.2-0.2C6.3,18.8,6.2,18.2,5.8,17.9z"/>
	<path class="st0" d="M15.4,18.2c-0.2-0.1-0.5,0-0.6,0.1l-0.2,0.1c-0.4,0.2-0.6,0.6-0.5,1c0.1,0.5,0.6,0.7,1.1,0.6
		c0,0,0.1,0,0.1-0.1c0.1,0,0.1-0.1,0.2-0.1c0.1-0.1,0.2-0.2,0.4-0.4v-0.1C16.2,18.8,15.9,18.3,15.4,18.2L15.4,18.2z"/>
	<path class="st0" d="M10.5,4.2C7,4.2,4.3,7,4.3,10.4s2.8,6.2,6.2,6.2c3.5,0,6.2-2.8,6.2-6.2l0,0C16.7,7,13.9,4.3,10.5,4.2z
		 M10.5,15.4c-2.7,0-4.9-2.2-4.9-4.9s2.2-4.9,4.9-4.9s4.9,2.2,4.9,4.9C15.4,13.2,13.2,15.4,10.5,15.4L10.5,15.4z"/>
</g>
</svg>
