<?xml version="1.0" encoding="utf-8"?>
<!-- Generator: Adobe Illustrator 22.0.0, SVG Export Plug-In . SVG Version: 6.00 Build 0)  -->
<svg version="1.1" id="Calque_1" xmlns="http://www.w3.org/2000/svg" xmlns:xlink="http://www.w3.org/1999/xlink" x="0px" y="0px"
	 viewBox="0 0 21 21" style="enable-background:new 0 0 21 21;" xml:space="preserve">
<style type="text/css">
	.st0{fill:#CBA15A;}
</style>
<g>
	<path class="st0" d="M10.5,4.8C4.7,4.8,0,9.5,0,15.3v0.9h0.9h19.2H21v-0.9C21,9.5,16.2,4.8,10.5,4.8z M0.9,15.3
		c0-5.3,4.3-9.6,9.6-9.6s9.6,4.3,9.6,9.6H0.9z"/>
	<path class="st0" d="M13.8,8.3c0,0,0.2-0.4,0.3-0.6c0-0.2,0-0.2-0.4-0.4c0,0,0,0-0.2-0.1c-0.9-0.4-1.9-0.5-2.9-0.5S9,6.8,8,7.1
		L7.5,7.3C7.1,7.5,7.1,7.7,7.1,7.9c0,0.1,0,0.1,0.1,0.3l0,0l0.3,0.5l3.1,5.3l0,0l0,0l0,0l0,0l0,0l0,0L13.8,8.3z"/>
	<path class="st0" d="M7,9.3L6.6,8.8L6.5,8.5C6.4,8.4,6.4,8.4,6.3,8.4c-0.2-0.1-0.4-0.1-0.6,0L5.2,8.6c-0.8,0.7-1.1,1.3-1.6,2.1
		c-0.5,0.9-0.8,1.8-1,2.8v0.1c0,0.2,0.1,0.5,0.3,0.5c0.1,0.1,0.2,0.1,0.3,0.1l0,0h0.2h6.5l0,0l0,0L7,9.3z"/>
	<path class="st0" d="M15.4,8.4l-0.1-0.1c-0.2-0.1-0.5-0.1-0.6,0c-0.1,0.1-0.3,0.3-0.3,0.3l-3.3,5.7l0,0l0,0h6.5h0.2l0,0
		c0.1,0,0.2-0.1,0.4-0.2c0.2-0.2,0.2-0.3,0.2-0.5v-0.1c-0.1-1-0.5-1.9-1-2.8C16.9,9.9,16.3,9.1,15.4,8.4z"/>
</g>
</svg>
