<?xml version="1.0" encoding="utf-8"?>
<!-- Generator: Adobe Illustrator 21.1.0, SVG Export Plug-In . SVG Version: 6.00 Build 0)  -->
<svg version="1.1" id="Calque_1" xmlns="http://www.w3.org/2000/svg" xmlns:xlink="http://www.w3.org/1999/xlink" x="0px" y="0px"
	 viewBox="0 0 25 14.3" style="enable-background:new 0 0 25 14.3;" xml:space="preserve">
<style type="text/css">
	.st0{fill:#CBA15A;}
</style>
<g>
	<path class="st0" d="M23,4.6h-0.5H19h-1.5L13,0.2c0-0.1-0.1-0.1-0.1-0.2h-0.1c-0.1,0-0.1,0-0.2,0l0,0c0,0,0,0-0.1,0s-0.1,0-0.2,0
		h-0.1C12.1,0,12,0.1,12,0.1h-0.1c-0.1,0.1-0.2,0.1-0.4,0.2l0,0c-0.1,0.1-0.2,0.1-0.3,0.2l-0.1,0.1c-0.1,0.1-0.2,0.1-0.3,0.2
		l-0.1,0.1c-0.1,0.1-0.3,0.2-0.4,0.3C9.2,2.4,8.7,3.7,9.1,4.1l0.5,0.5H2.8C1.2,4.6,0,6.8,0,9.4s1.2,4.8,2.8,4.8H19h3.6H23
		c1.1,0,2-2.2,2-4.8S24.1,4.6,23,4.6z M2.8,13.5c-0.9,0-1.9-1.7-1.9-4s1-4,1.9-4c0.3,0,0.5,0.2,0.8,0.4c0.6,0.6,1.1,2,1.1,3.6
		s-0.5,3-1.1,3.6C3.3,13.3,3,13.5,2.8,13.5z M23,13.5h-0.5H19H4.3c0.7-0.9,1.2-2.4,1.2-4c0-1.7-0.5-3.2-1.2-4h5.3h1.9L10.1,4
		L9.7,3.6c0-0.3,0.4-1,1.1-1.7c0.7-0.7,1.4-1.1,1.7-1.1l4.3,4.3L17,5.3h0.3H19h3.6H23c0.3,0,1.2,1.4,1.2,4
		C24.2,12.1,23.3,13.5,23,13.5z"/>
	<rect x="7.5" y="7.5" class="st0" width="14.4" height="0.5"/>
	<rect x="13" y="11.3" class="st0" width="8.9" height="0.5"/>
	<rect x="16" y="9" class="st0" width="3.8" height="0.5"/>
	<rect x="9.7" y="10" class="st0" width="11" height="0.5"/>
</g>
</svg>
