<?xml version="1.0" encoding="utf-8"?>
<!-- Generator: Adobe Illustrator 21.1.0, SVG Export Plug-In . SVG Version: 6.00 Build 0)  -->
<svg version="1.1" id="Calque_1" xmlns="http://www.w3.org/2000/svg" xmlns:xlink="http://www.w3.org/1999/xlink" x="0px" y="0px"
	 viewBox="0 0 18.5 20" style="enable-background:new 0 0 18.5 20;" xml:space="preserve">
<style type="text/css">
	.st0{fill:#CBA15A;}
</style>
<g>
	<ellipse class="st0" cx="5.3" cy="15.1" rx="0.7" ry="0.5"/>
	<ellipse class="st0" cx="6.7" cy="13.7" rx="0.7" ry="0.5"/>
	<ellipse class="st0" cx="7.9" cy="12" rx="0.7" ry="0.5"/>
	<ellipse class="st0" cx="9.1" cy="10.2" rx="0.7" ry="0.5"/>
	<ellipse class="st0" cx="10.3" cy="8.5" rx="0.7" ry="0.5"/>
	<ellipse transform="matrix(0.9553 -0.2956 0.2956 0.9553 -1.7102 2.888)" class="st0" cx="8.7" cy="7.1" rx="0.5" ry="0.7"/>
	<ellipse transform="matrix(0.9554 -0.2954 0.2954 0.9554 -2.2652 2.6095)" class="st0" cx="7.5" cy="8.8" rx="0.5" ry="0.7"/>
	<ellipse transform="matrix(0.9554 -0.2954 0.2954 0.9554 -2.7948 2.2957)" class="st0" cx="6.2" cy="10.4" rx="0.5" ry="0.7"/>
	<ellipse transform="matrix(0.9554 -0.2953 0.2953 0.9554 -3.3552 1.9865)" class="st0" cx="4.9" cy="12.1" rx="0.5" ry="0.7"/>
	<ellipse class="st0" cx="11.5" cy="6.8" rx="0.7" ry="0.5"/>
	<ellipse class="st0" cx="12.7" cy="5.1" rx="0.7" ry="0.5"/>
	<path class="st0" d="M17.5,0.8C16.9,0.2,16-0.1,14.9,0c-3.4,0.5-6.1,2-9.4,4.2c-3,2.1-5.2,6.7-5.4,9c-0.1,1.3,0.1,4.4,1.4,5.9
		C1.8,19.7,2.3,20,2.9,20C3,20,3,20,3.1,20l0,0c2.1,0,7-2,9.5-5.9c0.5-0.8,1.2-1.8,1.9-2.8c1.9-2.7,3.9-5.6,4-7.2
		C18.5,4.1,18.6,2,17.5,0.8z M17.8,4.1C17.7,5.6,15.7,8.4,14,11c-0.7,1-1.4,1.9-1.9,2.8c-2.3,3.7-7.1,5.6-9,5.6c-0.1,0-0.1,0-0.1,0
		c-0.4,0-0.7-0.2-1.1-0.6c-1-1.2-1.3-3.9-1.2-5.4c0.2-1.9,2.1-6.5,5.1-8.6C9,2.6,11.7,1.1,15,0.7c0.2,0,0.3,0,0.5,0
		c0.6,0,1.2,0.2,1.5,0.6C17.9,2.3,17.8,4.1,17.8,4.1z"/>
	<path class="st0" d="M3,16c0-0.1,0-5.3,2.9-8c2.7-2.5,5-4,7.8-4.8C13.9,3.1,14,2.9,14,2.8c-0.1-0.2-0.2-0.3-0.4-0.2
		c-2.9,0.9-5.3,2.4-8.1,5c-3.1,2.9-3.1,8.3-3.1,8.5s0.1,0.3,0.3,0.3S3,16.2,3,16z"/>
	<path class="st0" d="M14.8,3.4c-0.2,0-0.3,0.2-0.3,0.4c0,0,0.2,1.3-0.3,2.1c-0.2,0.3-0.5,0.8-1,1.4c-1.1,1.5-2.8,3.8-4.1,5.9
		c-1.8,2.8-6,4.3-6.1,4.3c-0.2,0.1-0.3,0.3-0.2,0.4c0,0.1,0.2,0.2,0.3,0.2h0.1c0.2-0.1,4.5-1.6,6.4-4.6c1.4-2.1,3-4.3,4.1-5.9
		c0.4-0.6,0.8-1.1,1-1.4c0.7-1,0.5-2.5,0.5-2.5C15.2,3.5,15,3.4,14.8,3.4z"/>
</g>
</svg>
