<?xml version="1.0" encoding="utf-8"?>
<!-- Generator: Adobe Illustrator 21.1.0, SVG Export Plug-In . SVG Version: 6.00 Build 0)  -->
<svg version="1.1" id="Calque_1" xmlns="http://www.w3.org/2000/svg" xmlns:xlink="http://www.w3.org/1999/xlink" x="0px" y="0px"
	 viewBox="0 0 12.7 19" style="enable-background:new 0 0 12.7 19;" xml:space="preserve">
<style type="text/css">
	.st0{fill:#CBA15A;}
</style>
<g>
	<path class="st0" d="M6.3,7.9C9.7,2.8,6.1,0,6.1,0C2.9,4.7,6.3,7.9,6.3,7.9z M6.2,0.9c0.7,0.8,1.8,2.8,0,5.9
		C5.6,5.9,4.6,3.8,6.2,0.9z"/>
	<path class="st0" d="M6.3,10.5c0,0-0.7-4.6-6.3-4.7C0,5.8,0.2,10.3,6.3,10.5z M5.5,9.8C2,9.5,1,7.5,0.7,6.4
		C3.9,6.7,5.1,8.7,5.5,9.8z"/>
	<path class="st0" d="M0,10.1c0,0,0.2,4.5,6.3,4.7C6.3,14.8,5.7,10.1,0,10.1z M0.7,10.7C3.9,11,5.1,13,5.5,14.1
		C2,13.8,1,11.8,0.7,10.7z"/>
	<path class="st0" d="M0,14.3c0,0,0.2,4.5,6.3,4.7C6.3,19,5.7,14.4,0,14.3z M0.7,15c3.2,0.3,4.4,2.3,4.8,3.4C2,18,1,16,0.7,15z"/>
	<path class="st0" d="M12.7,5.8c-5.7,0-6.4,4.7-6.4,4.7C12.5,10.3,12.7,5.8,12.7,5.8z M7.1,9.8C7.5,8.7,8.7,6.7,12,6.4
		C11.7,7.5,10.7,9.5,7.1,9.8z"/>
	<path class="st0" d="M6.3,14.8c6.1-0.2,6.3-4.7,6.3-4.7C7,10.1,6.3,14.8,6.3,14.8z M12,10.7c-0.3,1.1-1.3,3.1-4.8,3.4
		C7.5,13,8.7,11,12,10.7z"/>
	<path class="st0" d="M6.3,19c6.1-0.2,6.3-4.7,6.3-4.7C7,14.4,6.3,19,6.3,19z M12,15c-0.3,1.1-1.3,3.1-4.8,3.4
		C7.5,17.3,8.7,15.3,12,15z"/>
</g>
</svg>
