<?xml version="1.0" encoding="utf-8"?>
<!-- Generator: Adobe Illustrator 21.1.0, SVG Export Plug-In . SVG Version: 6.00 Build 0)  -->
<svg version="1.1" id="Calque_1" xmlns="http://www.w3.org/2000/svg" xmlns:xlink="http://www.w3.org/1999/xlink" x="0px" y="0px"
	 viewBox="0 0 21 17.8" style="enable-background:new 0 0 21 17.8;" xml:space="preserve">
<style type="text/css">
	.st0{fill:#CBA15A;}
</style>
<g>
	<path class="st0" d="M17.7,13.7c-0.3,0-0.6,0-0.9,0c-0.2,0-0.3,0-0.5,0c-2.3,0-3.2-1.7-3.8-3c-0.7-1.3-1.3-5.2-2.5-7
		C9.4,3,8.6,2.6,7.9,2.6S6.5,2.9,6,3.4C5.9,3.5,5.7,3.6,5.6,3.7c1.5,0.7,2,2.8,2,2.8c-1-1.7-3-2.6-3-2.6l0,0C4.3,3.8,4,3.8,3.6,3.8
		S2.8,3.9,2.3,4.3C0,6,2.9,7.8,3.6,8.1C5,8.7,6.3,10,8.1,12.8c1.7,2.9,4.2,4,6.3,4c0.7,0,1.4-0.1,2-0.4c0.3-0.1,0.5-0.1,0.8-0.1
		c1.6,0,3,1.4,3,1.4c0.1,0.1,0.2,0.1,0.3,0.1c0.4,0,0.5-0.6,0.5-0.9C21,16.2,21.2,13.7,17.7,13.7z M20.4,16.9c0,0.1,0,0.1,0,0.2
		c-0.5-0.4-1.8-1.4-3.2-1.4c-0.4,0-0.7,0.1-1,0.2c-0.5,0.2-1.2,0.3-1.8,0.3c-2.3,0-4.4-1.3-5.8-3.7c-1.7-2.8-3.1-4.3-4.7-5
		c-0.5-0.2-1.7-1-1.8-1.7c0-0.3,0.2-0.7,0.6-1c0.5-0.3,0.7-0.4,0.9-0.4s0.5,0,0.8,0.1l0,0c0.2,0.1,1.9,0.9,2.7,2.3
		C7.2,7,7.4,7.2,7.6,7.2c0.1,0,0.1,0,0.2,0C8.1,7,8.3,6.7,8.2,6.4c0-0.1-0.4-1.7-1.6-2.7C7,3.4,7.5,3.2,7.9,3.2c0.6,0,1.2,0.3,1.6,1
		c0.7,1,1.2,2.8,1.6,4.3c0.3,1.1,0.6,2,0.8,2.6c0.6,1.2,1.7,3.3,4.4,3.3c0.2,0,0.4,0,0.5,0c0.3,0,0.6,0,0.8,0c1,0,1.8,0.2,2.2,0.7
		C20.3,15.6,20.4,16.5,20.4,16.9L20.4,16.9z"/>
	<path class="st0" d="M2.8,1.1c1.4,0.3,2,2.1,2,2.1C5.5,2.4,6,2.3,6,2.3S5.3,0.3,3.1,0C0.9-0.2,0.4,1.5,0.4,1.5l0,0
		C0.4,1.5,1.6,0.8,2.8,1.1z"/>
</g>
</svg>
