<?xml version="1.0" encoding="utf-8"?>
<!-- Generator: Adobe Illustrator 22.0.0, SVG Export Plug-In . SVG Version: 6.00 Build 0)  -->
<svg version="1.1" id="Calque_1" xmlns="http://www.w3.org/2000/svg" xmlns:xlink="http://www.w3.org/1999/xlink" x="0px" y="0px"
	 viewBox="0 0 21 21" style="enable-background:new 0 0 21 21;" xml:space="preserve">
<style type="text/css">
	.st0{fill:#CBA15A;}
</style>
<g>
	<path class="st0" d="M10.5,0L10.5,0L10.5,0C9.1,0,8,1.1,8,2.5c0,0.5,0.2,1,0.5,1.4l0,0l0,0l0,0l0,0c0.6-0.2,1.3-0.3,1.9-0.3
		c0.7,0,1.3,0.1,1.9,0.3l0,0l0,0l0,0l0,0C12.8,3.5,13,3,13,2.5C13,1.1,11.9,0,10.5,0z M12.1,3.1C11.6,3,11,2.9,10.5,2.9
		C9.9,2.9,9.4,3,8.9,3.1C8.8,2.9,8.7,2.7,8.7,2.5c0-1,0.8-1.7,1.7-1.8l0,0l0,0l0,0c1,0,1.7,0.8,1.7,1.8C12.1,2.8,12.1,2.9,12.1,3.1z
		"/>
	<path class="st0" d="M4.1,12.3L4.1,12.3c-0.2-0.6-0.3-1.3-0.3-1.9c0-0.6,0.1-1.2,0.2-1.8l0,0C3.6,8.3,3.1,8,2.5,8
		C1.1,8,0,9.1,0,10.5S1.1,13,2.5,13C3.1,13,3.6,12.7,4.1,12.3z M0.7,10.5c0-1,0.8-1.8,1.8-1.8c0.3,0,0.6,0.1,0.8,0.2
		c-0.1,0.5-0.2,1-0.2,1.5s0.1,1.1,0.2,1.6c-0.2,0.1-0.5,0.2-0.8,0.2C1.5,12.3,0.7,11.5,0.7,10.5z"/>
	<path class="st0" d="M4.6,7.2L4.6,7.2c0.6-1.1,1.5-2.1,2.7-2.7l0,0C7.2,4,6.9,3.5,6.5,3.1C6.1,2.6,5.4,2.4,4.8,2.4S3.6,2.6,3.1,3.1
		c-1,1-1,2.5,0,3.5C3.5,7,4,7.2,4.6,7.2z M3.6,3.6c0.3-0.3,0.8-0.5,1.2-0.5c0.5,0,0.9,0.2,1.2,0.5C6.2,3.8,6.3,4,6.4,4.2
		C5.6,4.8,4.8,5.5,4.2,6.5C4,6.4,3.8,6.3,3.6,6.1C3.2,5.7,3.1,5.3,3.1,4.8S3.2,3.9,3.6,3.6z"/>
	<path class="st0" d="M12.4,17C12.3,17,12.4,17,12.4,17C12.3,16.9,12.3,16.9,12.4,17c-0.6,0.1-1.2,0.2-1.9,0.2
		c-0.6,0-1.2-0.1-1.8-0.3l0,0l0,0l0,0l0,0c-0.4,0.4-0.6,1-0.6,1.6c0,1.4,1.1,2.5,2.5,2.5l0,0l0,0c1.4,0,2.6-1.2,2.5-2.5
		C13,17.9,12.7,17.4,12.4,17 M10.5,20.3L10.5,20.3L10.5,20.3c-1,0-1.8-0.8-1.8-1.8c0-0.3,0.1-0.6,0.2-0.8c0.5,0.1,1,0.2,1.6,0.2
		c0.5,0,1-0.1,1.5-0.2l0,0l0,0c0.1,0.2,0.2,0.5,0.2,0.8C12.3,19.5,11.5,20.3,10.5,20.3z"/>
	<path class="st0" d="M4.7,13.7L4.7,13.7c-0.6,0-1.2,0.3-1.6,0.7c-1,1-1,2.5,0,3.5c0.5,0.5,1.1,0.7,1.7,0.7s1.3-0.2,1.7-0.7
		c0.4-0.4,0.7-1,0.7-1.6l0,0C6.2,15.7,5.3,14.8,4.7,13.7z M6.1,17.4c-0.3,0.3-0.8,0.5-1.2,0.5c-0.5,0-0.9-0.2-1.2-0.5
		s-0.5-0.8-0.5-1.2c0-0.5,0.2-0.9,0.5-1.2c0.2-0.2,0.5-0.4,0.7-0.4c0.6,0.9,1.3,1.6,2.2,2.2C6.5,17,6.3,17.2,6.1,17.4z"/>
	<path class="st0" d="M18.5,8c-0.6,0-1.1,0.2-1.6,0.6l0,0c0.2,0.6,0.2,1.2,0.2,1.8c0,0.7-0.1,1.3-0.3,1.9l0,0c0.4,0.4,1,0.6,1.6,0.6
		c1.4,0,2.5-1.1,2.5-2.5C21,9.1,19.9,8,18.5,8z M18.5,12.3c-0.3,0-0.6-0.1-0.8-0.2c0.1-0.5,0.2-1.1,0.2-1.6s-0.1-1-0.2-1.5
		c0.2-0.1,0.5-0.2,0.8-0.2c1,0,1.8,0.8,1.8,1.8C20.3,11.5,19.5,12.3,18.5,12.3z"/>
	<path class="st0" d="M16.3,13.8L16.3,13.8c-0.6,1.1-1.5,2-2.6,2.6l0,0c0,0.6,0.3,1.1,0.7,1.6c0.5,0.5,1.1,0.7,1.7,0.7
		c0.6,0,1.3-0.2,1.7-0.7c1-1,1-2.4,0.1-3.5C17.5,14,16.9,13.8,16.3,13.8z M17.4,17.4c-0.3,0.3-0.8,0.5-1.2,0.5s-0.9-0.2-1.2-0.5
		c-0.2-0.2-0.4-0.5-0.4-0.7c0.9-0.6,1.6-1.3,2.2-2.2c0.2,0.1,0.5,0.2,0.7,0.4c0.3,0.3,0.5,0.8,0.5,1.1v0.1
		C17.9,16.7,17.7,17.1,17.4,17.4z"/>
	<path class="st0" d="M16.4,7.2L16.4,7.2c0.6,0,1.1-0.2,1.5-0.7c1-1,1-2.5,0-3.5c-0.5-0.5-1.1-0.7-1.7-0.7S14.9,2.5,14.5,3
		c-0.5,0.5-0.7,1-0.7,1.5l0,0C14.9,5.2,15.8,6.1,16.4,7.2z M14.9,3.6c0.3-0.3,0.8-0.5,1.2-0.5c0.5,0,0.9,0.2,1.2,0.5
		c0.3,0.3,0.5,0.8,0.5,1.2c0,0.5-0.2,0.9-0.5,1.2c-0.2,0.2-0.4,0.3-0.7,0.4c-0.6-0.9-1.3-1.7-2.2-2.3C14.6,3.9,14.8,3.7,14.9,3.6z"
		/>
</g>
</svg>
