<?xml version="1.0" encoding="utf-8"?>
<!-- Generator: Adobe Illustrator 21.1.0, SVG Export Plug-In . SVG Version: 6.00 Build 0)  -->
<svg version="1.1" id="Calque_1" xmlns="http://www.w3.org/2000/svg" xmlns:xlink="http://www.w3.org/1999/xlink" x="0px" y="0px"
	 viewBox="0 0 21 27.3" style="enable-background:new 0 0 21 27.3;" xml:space="preserve">
<style type="text/css">
	.st0{fill:#CBA15A;}
</style>
<g>
	<path class="st0" d="M20.6,16.4L20.6,16.4L20.6,16.4c-1.1-1.8-2.3-2.3-3.8-2.9c-1.3-0.5-2.8-0.8-4.5-0.8c-1,0-2,0.1-3.1,0.3
		c-3.4,0.6-6.8,2.9-8.4,5.7c-0.9,1.6-1.1,3.2-0.6,4.6s1.7,2.5,3.3,3.2c1.4,0.6,3.1,0.9,5,0.9c2,0,4.2-0.4,5.6-0.9
		c3.3-1.4,5.5-3.2,6.4-5.5C21.5,18.5,20.9,16.8,20.6,16.4z M20,20.7c-0.8,2.1-2.9,3.9-6.1,5.2c-1.3,0.5-3.4,0.9-5.3,0.9
		c-1.8,0-3.5-0.3-4.8-0.8c-1.5-0.6-2.5-1.6-3-2.9c-0.4-1.2-0.2-2.6,0.6-4.1c1.5-2.6,4.8-4.8,8-5.4c1-0.2,2-0.3,3-0.3
		c1.6,0,3,0.3,4.3,0.8c1.4,0.6,2.5,1.3,3.4,2.6C20.5,17.3,20.8,18.6,20,20.7z"/>
	<path class="st0" d="M17.6,16.5c-0.5,0.3-1.4,0.7-3,0.9c-0.4,0-0.7,0-1.1,0c-0.7,0-1.4-0.1-2.1-0.1c-0.7-0.1-1.3-0.1-1.9-0.1
		c-1.1,0-2.2,0.2-3.2,0.6c-1.7,0.6-2.8,2.1-3.4,3.2C2.2,22.2,2,23.3,2,23.3l-0.1,0.5l0.3-0.4c2.8-4.3,5-4.5,10.1-4.7
		c1.5,0,3.5-0.3,5.1-1.5c0.9-0.7,1.2-1.3,1.2-1.4l0,0C18.4,15.9,18.1,16.1,17.6,16.5z"/>
	<path class="st0" d="M6.8,9.6c-0.1,0.4-0.1,0.5-0.1,0.6c-0.1,0.4-0.2,0.7-0.3,0.9c-0.1,0.2-0.2,0.3-0.2,0.3s0.1-0.1,0.3-0.3
		c0.2-0.2,0.4-0.5,0.6-0.9C7.2,10,7.3,9.8,7.3,9.5c0-0.1,0-0.3,0-0.4c0-0.1,0-0.2-0.1-0.4S7.2,8.4,7,8.1C6.9,8,6.8,7.8,6.7,7.7
		L6.4,7.3L6.2,7.1C6.1,7,6.1,6.9,5.9,6.8C5.7,6.6,5.7,6.3,5.7,6.2c0-0.1-0.1-0.5-0.1-0.4s0-0.2,0-0.3c0-0.2,0-0.3,0.1-0.6
		s0.2-0.8,0.3-1c0.1-0.2,0.2-0.3,0.2-0.3S6,3.7,5.9,3.8C5.7,4,5.5,4.2,5.2,4.7C5.1,4.9,5.1,5.2,5,5.4S4.9,5.7,4.9,5.8
		C4.9,6,5,6,5,6.3s0.2,0.6,0.3,0.8c0.1,0.1,0.2,0.3,0.3,0.4l0.3,0.3l0.3,0.3c0.1,0.1,0.2,0.3,0.2,0.3C6.5,8.6,6.6,8.8,6.7,9
		C6.8,9.2,6.8,9.2,6.8,9.6z"/>
	<path class="st0" d="M11.9,7c-0.1,0.4-0.1,0.5-0.1,0.6c-0.1,0.4-0.2,0.7-0.3,0.9c-0.1,0.2-0.2,0.3-0.2,0.3s0.1-0.1,0.3-0.3
		S12,8,12.2,7.6c0.1-0.2,0.2-0.4,0.2-0.7c0-0.1,0-0.3,0-0.4c0-0.1,0-0.2-0.1-0.4c-0.1-0.2-0.1-0.3-0.2-0.6c-0.1-0.1-0.2-0.3-0.3-0.4
		l-0.3-0.4l-0.2-0.2c-0.1-0.1-0.1-0.2-0.3-0.3c-0.2-0.2-0.3-0.6-0.3-0.7c0-0.1-0.1-0.5-0.1-0.4c0,0.1,0-0.2,0-0.3
		c0-0.2,0-0.3,0.1-0.6s0.2-0.8,0.3-1C11.2,1.1,11.3,1,11.3,1S11.1,1.1,11,1.2c-0.2,0.2-0.4,0.4-0.7,0.9c-0.1,0.2-0.2,0.5-0.2,0.7
		S10,3.1,10,3.2c0,0.2,0,0.2,0.1,0.5s0.2,0.6,0.3,0.8c0.1,0.1,0.2,0.3,0.3,0.4L11,5.2l0.3,0.3c0.1,0.1,0.2,0.3,0.2,0.3
		c0.1,0.2,0.2,0.4,0.3,0.6C11.9,6.6,11.9,6.6,11.9,7z"/>
	<path class="st0" d="M17.1,9.2C17.1,9.6,17,9.7,17,9.8c-0.1,0.4-0.2,0.7-0.3,0.9c-0.1,0.2-0.2,0.3-0.2,0.3s0.1-0.1,0.3-0.3
		c0.2-0.2,0.4-0.5,0.6-0.9c0.1-0.2,0.2-0.4,0.2-0.7c0-0.1,0-0.3,0-0.4c0-0.1,0-0.2-0.1-0.4S17.5,8,17.3,7.7
		c-0.1-0.1-0.2-0.3-0.3-0.4l-0.3-0.4l-0.2-0.2c-0.1-0.1-0.1-0.2-0.3-0.3C16,6.3,16,5.9,15.9,5.8c0-0.1-0.1-0.5-0.1-0.4
		c0,0.1,0-0.2,0-0.3c0-0.2,0-0.3,0.1-0.6c0.1-0.3,0.2-0.8,0.3-1c0.1-0.2,0.2-0.3,0.2-0.3s-0.2,0.1-0.3,0.2c-0.2,0.2-0.4,0.4-0.7,0.9
		c-0.1,0.2-0.2,0.5-0.2,0.7s-0.1,0.3-0.1,0.4c0,0.2,0,0.2,0.1,0.5s0.2,0.6,0.3,0.8c0.1,0.1,0.2,0.3,0.3,0.4l0.3,0.3l0.3,0.3
		C16.6,7.8,16.7,8,16.7,8c0.1,0.2,0.2,0.4,0.3,0.6C17.1,8.8,17.1,8.9,17.1,9.2z"/>
</g>
</svg>
