<?xml version="1.0" encoding="utf-8"?>
<!-- Generator: Adobe Illustrator 21.1.0, SVG Export Plug-In . SVG Version: 6.00 Build 0)  -->
<svg version="1.1" id="Calque_1" xmlns="http://www.w3.org/2000/svg" xmlns:xlink="http://www.w3.org/1999/xlink" x="0px" y="0px"
	 viewBox="0 0 20.5 20.8" style="enable-background:new 0 0 20.5 20.8;" xml:space="preserve">
<style type="text/css">
	.st0{fill:#CBA15A;}
</style>
<path class="st0" d="M20.5,17.7v-6.1l-4.9-2.9V3l-5.4-3L4.9,3.1v5.7l-5,2.9v6.1l5.3,3.1l4.9-2.9l5,2.9L20.5,17.7z M10.2,0.8l4.6,2.7
	v5.3l-4.6,2.7L5.6,8.7V3.4L10.2,0.8z M5.3,20l-4.6-2.7V12l4.6-2.6L9.9,12v5.3L5.3,20z M10.6,12l4.6-2.7l4.6,2.6v5.3L15.2,20
	l-4.6-2.7V12z"/>
</svg>
