<?xml version="1.0" encoding="utf-8"?>
<!-- Generator: Adobe Illustrator 22.0.0, SVG Export Plug-In . SVG Version: 6.00 Build 0)  -->
<svg version="1.1" id="Calque_1" xmlns="http://www.w3.org/2000/svg" xmlns:xlink="http://www.w3.org/1999/xlink" x="0px" y="0px"
	 viewBox="0 0 21 21" style="enable-background:new 0 0 21 21;" xml:space="preserve">
<style type="text/css">
	.st0{fill:#CBA15A;}
</style>
<g>
	<path class="st0" d="M18.2,15.8c-1.4,0-2.6,1.2-2.6,2.6c0,1.4,1.2,2.6,2.6,2.6s2.6-1.2,2.6-2.6C20.8,16.9,19.7,15.8,18.2,15.8z
		 M18.2,20.3c-1.1,0-1.9-0.9-1.9-1.9c0-1.1,0.9-1.9,1.9-1.9s1.9,0.9,1.9,1.9S19.3,20.3,18.2,20.3z"/>
	<path class="st0" d="M11.7,15.8c-1.4,0-2.6,1.2-2.6,2.6c0,1.4,1.2,2.6,2.6,2.6s2.6-1.2,2.6-2.6C14.3,16.9,13.2,15.8,11.7,15.8z
		 M11.7,20.3c-1.1,0-1.9-0.9-1.9-1.9c0-1.1,0.9-1.9,1.9-1.9c1.1,0,1.9,0.9,1.9,1.9S12.8,20.3,11.7,20.3z"/>
	<path class="st0" d="M5.2,14.7c-1.4,0-2.6,1.2-2.6,2.6c0,1.4,1.2,2.6,2.6,2.6s2.6-1.2,2.6-2.6C7.8,15.9,6.7,14.7,5.2,14.7z
		 M5.2,19.2c-1.1,0-1.9-0.9-1.9-1.9c0-1.1,0.9-1.9,1.9-1.9s1.9,0.9,1.9,1.9C7.1,18.4,6.3,19.2,5.2,19.2z"/>
	<path class="st0" d="M11.2,11.6C11.2,10.2,10,9,8.6,9S6,10.2,6,11.6s1.2,2.6,2.6,2.6C10,14.2,11.2,13,11.2,11.6z M8.6,13.5
		c-1.1,0-1.9-0.9-1.9-1.9c0-1.1,0.9-1.9,1.9-1.9c1.1,0,1.9,0.9,1.9,1.9C10.5,12.6,9.7,13.5,8.6,13.5z"/>
	<path class="st0" d="M13.4,9.4c1.4,0,2.6-1.2,2.6-2.6s-1.2-2.6-2.6-2.6s-2.6,1.2-2.6,2.6C10.7,8.2,11.9,9.4,13.4,9.4z M13.4,4.8
		c1.1,0,1.9,0.9,1.9,1.9c0,1.1-0.9,1.9-1.9,1.9s-1.9-0.9-1.9-1.9C11.4,5.7,12.3,4.8,13.4,4.8z"/>
	<path class="st0" d="M17.3,12.9c0-1.4-1.2-2.6-2.6-2.6s-2.6,1.2-2.6,2.6s1.2,2.6,2.6,2.6S17.3,14.3,17.3,12.9z M14.7,14.8
		c-1.1,0-1.9-0.9-1.9-1.9c0-1.1,0.9-1.9,1.9-1.9c1.1,0,1.9,0.9,1.9,1.9S15.7,14.8,14.7,14.8z"/>
	<path class="st0" d="M3.6,9.2c0.2-1.4,1.6-1.7,4.8-3.5C10.8,4.4,9.1,0,9.1,0C9,1.8,4.5,3.2,4.5,3.2S0.1,4.8,0.2,7.5
		c0.1,3.3,4.2,3.6,4.2,3.6S3.4,10.3,3.6,9.2z M2.9,10c-0.9-0.3-2-1.1-2-2.6c0-1.7,2.5-3.1,3.6-3.5c0.1,0,0.5-0.2,0.6-0.2
		c0.8-0.2,2.5-0.8,3.7-1.9C9,3,9.1,4.6,8,5.2c-0.7,0.4-1.4,0.7-2,1C4.2,7.1,3.2,7.7,2.9,9C2.8,9.4,2.8,9.7,2.9,10z"/>
</g>
</svg>
