<?xml version="1.0" encoding="utf-8"?>
<!-- Generator: Adobe Illustrator 21.1.0, SVG Export Plug-In . SVG Version: 6.00 Build 0)  -->
<svg version="1.1" id="capsule" xmlns="http://www.w3.org/2000/svg" xmlns:xlink="http://www.w3.org/1999/xlink" x="0px" y="0px"
	 viewBox="0 0 295.2 251.3" style="enable-background:new 0 0 295.2 251.3;" xml:space="preserve">
<style type="text/css">
	.st0{fill:none;stroke:#CBA15A;stroke-width:4;stroke-miterlimit:10;}
</style>
<path class="st0" d="M29.6,215.9l24-171c0,0,0.4-3.8,5.5-6.9s53.5-30.4,53.5-30.4S122.1,2,145,2s32.7,5.3,32.7,5.3l54.2,30.2
	c0,0,4.9,2.2,6,6.9s23.8,170.7,23.8,170.7"/>
<path class="st0" d="M59,38c0,0,24.7-11.9,56.8-13.5S173,24,183,25.4c9.9,1.4,33.2,5.8,46.2,10.7"/>
<path class="st0" d="M293.2,227.4c0,12.1-65.2,21.9-145.6,21.9S2,239.5,2,227.4s65.2-18.1,145.6-18.1S293.2,215.3,293.2,227.4z"/>
<path class="st0" d="M289.3,230.7c-0.3,8.7-64.8,17.8-141.7,18.1C70.5,249.1,7.4,240,7.4,230.4S70.5,217,147.6,217
	S289.7,221.1,289.3,230.7z"/>
</svg>
