<?xml version="1.0" encoding="UTF-8"?>
<svg width="9px" height="15px" viewBox="0 0 9 15" version="1.1" xmlns="http://www.w3.org/2000/svg" xmlns:xlink="http://www.w3.org/1999/xlink">
    <!-- Generator: Sketch 47.1 (45422) - http://www.bohemiancoding.com/sketch -->
    <title>facebook-logo</title>
    <desc>Created with Sketch.</desc>
    <defs></defs>
    <g id="Home" stroke="none" stroke-width="1" fill="none" fill-rule="evenodd">
        <g id="Home-Page-Copy" transform="translate(-217.000000, -5229.000000)" fill-rule="nonzero" fill="#CBA15A">
            <g id="Footer" transform="translate(0.000000, 4978.000000)">
                <g id="social" transform="translate(40.000000, 251.000000)">
                    <g id="social__icons" transform="translate(103.000000, 0.000000)">
                        <g id="facebook-logo" transform="translate(74.000000, 0.000000)">
                            <path d="M7.74572165,0.00309278351 L5.81814433,0 C3.65257732,0 2.25309278,1.43582474 2.25309278,3.65814433 L2.25309278,5.34479381 L0.315,5.34479381 C0.147525773,5.34479381 0.0119072165,5.48056701 0.0119072165,5.64804124 L0.0119072165,8.09180412 C0.0119072165,8.25927835 0.147680412,8.39489691 0.315,8.39489691 L2.25309278,8.39489691 L2.25309278,14.5612887 C2.25309278,14.7287629 2.38871134,14.8643814 2.55618557,14.8643814 L5.08484536,14.8643814 C5.25231959,14.8643814 5.38793814,14.7286082 5.38793814,14.5612887 L5.38793814,8.39489691 L7.65402062,8.39489691 C7.82149485,8.39489691 7.9571134,8.25927835 7.9571134,8.09180412 L7.95804124,5.64804124 C7.95804124,5.56762887 7.92603093,5.49061856 7.86927835,5.43371134 C7.81252577,5.37680412 7.73520619,5.34479381 7.65479381,5.34479381 L5.38793814,5.34479381 L5.38793814,3.915 C5.38793814,3.22778351 5.55170103,2.87891753 6.44690722,2.87891753 L7.74541237,2.87845361 C7.91273196,2.87845361 8.04835052,2.74268041 8.04835052,2.57536082 L8.04835052,0.306185567 C8.04835052,0.139020619 7.9128866,0.00340206186 7.74572165,0.00309278351 Z" id="Shape"></path>
                        </g>
                    </g>
                </g>
            </g>
        </g>
    </g>
</svg>