<?xml version="1.0" encoding="utf-8"?>
<!-- Generator: Adobe Illustrator 22.0.0, SVG Export Plug-In . SVG Version: 6.00 Build 0)  -->
<svg version="1.1"
	 id="Nespresso-logo" xmlns:cc="http://creativecommons.org/ns#" xmlns:dc="http://purl.org/dc/elements/1.1/" xmlns:inkscape="http://www.inkscape.org/namespaces/inkscape" xmlns:rdf="http://www.w3.org/1999/02/22-rdf-syntax-ns#" xmlns:sodipodi="http://sodipodi.sourceforge.net/DTD/sodipodi-0.dtd" xmlns:svg="http://www.w3.org/2000/svg"
	 xmlns="http://www.w3.org/2000/svg" xmlns:xlink="http://www.w3.org/1999/xlink" x="0px" y="0px" viewBox="0 0 708.7 147.2"
	 style="enable-background:new 0 0 708.7 147.2;" xml:space="preserve">
<style type="text/css">
	.st0{fill:#FEFEFE;}
</style>
<title>Logo Nespresso</title>
<desc>Logo Nespresso extrait par Tiger66</desc>
<path id="path24" class="st0" d="M689.2,103.5c0-5.4,4.4-9.7,9.7-9.7c5.4,0,9.8,4.4,9.8,9.7c0,5.4-4.4,9.8-9.8,9.8
	C693.5,113.3,689.2,108.9,689.2,103.5z M698.9,112.3c4.8,0,8.8-3.9,8.8-8.8c0-4.8-3.9-8.8-8.8-8.8c-4.8,0-8.8,4-8.8,8.8
	C690.1,108.3,694.1,112.3,698.9,112.3"/>
<path id="path26" class="st0" d="M694.6,97.6h5.3c2.3,0,3.6,1.2,3.6,3c0,2.1-1.4,2.6-1.8,2.8v0c0.7,0.1,1.7,0.6,1.7,2.4
	c0,1.3,0.1,2.4,0.6,2.9h-2c-0.3-0.4-0.3-1-0.3-1.6c0-2-0.4-3-2.2-3h-2.8v4.5h-1.9L694.6,97.6L694.6,97.6z M696.6,102.7h3.1
	c1.3,0,1.9-0.6,1.9-1.8c0-1.4-0.9-1.7-1.9-1.7h-3.1V102.7"/>
<path id="path28" class="st0" d="M649.7,113.5c-5.3,0.1-39.6-1.1-39.6-40.2c0.1-39.1,34.1-39.6,39.4-39.6c5.3,0,39.2,0.5,39.3,39.6
	c0.1,39.1-34.3,40.3-39.6,40.2 M649.6,102.7c2.2,0,18,0.7,17.9-31c-0.1-29.4-15.6-28.5-18.1-28.5h0c-2.5,0-17.9-0.9-18,28.5
	c-0.2,31.6,15.7,31,17.8,31H649.6"/>
<path id="path30" class="st0" d="M600.3,38.1v9.7c-4-1.7-6.3-3-10.5-4.1c-3.4-0.7-17.6-4.2-24.5,3.1c-2.9,2.9-3.8,8.2,2,12.4
	c8.1,5.3,19.6,7.7,29.2,15.5c6.2,5,8.2,10.7,6.7,19.6c-1.7,9-11.5,16.3-20.3,18.1c-12.8,2.6-27.3,1.4-38.8-3.5l0.1-9.5
	c10.5,4.4,26.9,10,37.1,1.1c2.8-2.6,4.5-6.2,3-10c-2.3-7-21.1-11-32.6-19.6c-11.4-7-10.4-19.1-6.4-25.7
	C555.9,29,583.2,33.5,600.3,38.1"/>
<path id="path32" class="st0" d="M534.3,38.1v9.7c-4-1.7-6.3-3-10.5-4.1c-3.3-0.7-17.6-4.2-24.5,3.1c-2.9,2.9-3.8,8.2,1.9,12.4
	c8.2,5.3,19.7,7.7,29.3,15.5c6.2,5,8.2,10.7,6.6,19.6c-1.6,9-11.5,16.3-20.3,18.1c-12.9,2.6-27.3,1.4-38.7-3.5l0-9.5
	c10.5,4.4,26.9,10,37.1,1.1c2.7-2.6,4.5-6.2,3-10c-2.4-7-21.2-11-32.7-19.6c-11.4-7-10.4-19.1-6.4-25.7
	C489.9,29,517.2,33.5,534.3,38.1"/>
<path id="path34" class="st0" d="M264.2,38.1v9.7c-4-1.7-6.3-3-10.6-4.1c-3.3-0.7-17.6-4.2-24.4,3.1c-2.9,2.9-3.8,8.2,2,12.4
	c8.1,5.3,19.7,7.7,29.2,15.5c6.2,5,8.2,10.7,6.7,19.6c-1.6,9-11.5,16.3-20.3,18.1c-12.9,2.6-27.3,1.4-38.8-3.5l0.1-9.5
	c10.6,4.4,26.9,10,37.1,1.1c2.8-2.6,4.5-6.2,3-10c-2.3-7-21.1-11-32.7-19.6c-11.4-7-10.4-19.1-6.4-25.7
	C219.8,29,247.2,33.5,264.2,38.1"/>
<path id="path36" class="st0" d="M167,104.4c10.4,1.1,23.1-0.6,33.3-0.8l0.1,8.6h-55.1c0,0,1.7-1.8,1.7-4.8V39.7
	c0-3-1.7-4.9-1.7-4.9h55.1l-0.1,8.6c-10.2-0.2-22.9-1.8-33.3-0.8c0,0,0,23.9,0,25.5c8.6,0.6,18.6,0.6,26.6-0.3V77
	c-7.8-0.7-18.1-0.9-26.6-0.4l0,3L167,104.4"/>
<path id="path38" class="st0" d="M437.4,104.4c10.4,1.1,23.1-0.6,33.3-0.8l0,8.6h-55c0,0,1.7-1.8,1.7-4.8V39.7c0-3-1.7-4.9-1.7-4.9
	h55l0,8.6c-10.2-0.2-22.9-1.8-33.3-0.8c0,0,0,23.9,0,25.5c8.6,0.6,18.6,0.6,26.6-0.3V77c-7.8-0.7-18.1-0.9-26.6-0.4L437.4,104.4"/>
<path id="path40" class="st0" d="M362.5,80.3v27.1c0,3,1.8,4.8,1.8,4.8l-23.5,0c0,0,1.7-1.8,1.7-4.8l0-67.7c0-3-1.7-4.9-1.7-4.9
	h40.1c10.9,0.5,22.4,6.5,22.8,19.6c0.1,10.7-4.6,16.9-11.8,20.3c-1.3,0.7-1.3,0.5-1.7,0.8c5.1,11.8,9.7,20.5,15.7,31.8
	c1.2,3,3.7,4.8,3.7,4.8h-24.3c0,0,1.5-1.8,0-4.8c0,0-8.6-20.4-12.7-27.1L362.5,80.3L362.5,80.3z M362.4,44.6v26.1
	c6.7,0,14.7,0.9,19.3-4.4c3.9-5.2,3.3-12,0.6-16.7C377.8,41.7,362.4,44.6,362.4,44.6"/>
<path id="path42" class="st0" d="M296.5,107.4c0,3,1.7,4.8,1.7,4.8l-23.5,0c0,0,1.7-1.8,1.7-4.8V39.7c0-3-1.7-4.9-1.7-4.9h38.9
	c9.8,0.4,17.3,4.9,20.5,14.3c2.4,8.3,2.1,19.1-3.8,25.8c-7.9,10.5-33.9,8.9-33.9,8.9L296.5,107.4L296.5,107.4z M296.4,44.7
	l-0.1,29.1c6.7,0.4,14.7,1.2,19.3-4.2c3.9-5.2,3.3-15.3,0.7-20C311.7,41.7,296.4,44.7,296.4,44.7"/>
<path id="path52" class="st0" d="M119.4,34.8c0,0,1.8,2,1.8,4.8v34.3c-10.2-12.1-19.3-25.8-29.8-38.2C87.4,31,80,23.1,77.1,20.7
	C58.7,2.6,28.3-5.7,0,4.3v1.1c9.7-2.1,22.3-1.4,34.6,3.6c9.3,3.4,22.5,13.7,30.1,23.1c9.9,11.3,30.9,40.2,30.9,40.2
	c12.1,15.7,22.7,30,35,44.8V39.6c0.1-2.8,1.8-4.8,1.8-4.8L119.4,34.8"/>
<path id="path54" class="st0" d="M64.5,112.3c0,0-1.7-2-1.7-4.8V73.3C72.9,85.3,82,99,92.5,111.4c3.9,4.7,11.3,12.6,14.2,15.1
	c18.5,18.1,48.8,26.4,77.1,16.4v-1.2c-9.7,2.1-22.3,1.4-34.6-3.6c-9.3-3.4-22.5-13.7-30.1-23.1c-9.9-11.3-30.9-40.2-30.9-40.2
	C76.2,59,65.5,44.7,53.2,29.9v77.6c0,2.9-1.7,4.8-1.7,4.8L64.5,112.3"/>
</svg>
