<svg id="Calque_1" data-name="Calque 1" xmlns="http://www.w3.org/2000/svg" viewBox="0 0 183 12">
  <title>map__intensite</title>
  <g id="Home">
    <g id="intensite_gold" data-name="intensite gold">
      <rect id="Rectangle-12" width="183" height="12" style="fill: #e5e5e5"/>
    </g>
  </g>
  <g id="Home-2" data-name="Home">
    <g id="intensite_white" data-name="intensite white">
      <rect id="Rectangle-12-2" data-name="Rectangle-12" width="183" height="12" style="fill: #cba15a"/>
    </g>
  </g>
  <g id="Home-3" data-name="Home">
    <g id="intensite_perfore" data-name="intensite perfore">
      <path id="Combined-Shape" d="M0,0H183V12H0ZM6,12A6,6,0,1,0,0,6,6,6,0,0,0,6,12Zm19,0a6,6,0,1,0-6-6A6,6,0,0,0,25,12Zm19,0a6,6,0,1,0-6-6A6,6,0,0,0,44,12Zm19,0a6,6,0,1,0-6-6A6,6,0,0,0,63,12Zm19,0a6,6,0,1,0-6-6A6,6,0,0,0,82,12Zm19,0a6,6,0,1,0-6-6A6,6,0,0,0,101,12Zm19,0a6,6,0,1,0-6-6A6,6,0,0,0,120,12Zm19,0a6,6,0,1,0-6-6A6,6,0,0,0,139,12Zm19,0a6,6,0,1,0-6-6A6,6,0,0,0,158,12Zm19,0a6,6,0,1,0-6-6A6,6,0,0,0,177,12Z" style="fill: #fff"/>
    </g>
  </g>
</svg>
