<?xml version="1.0" encoding="utf-8"?>
<!-- Generator: Adobe Illustrator 22.0.1, SVG Export Plug-In . SVG Version: 6.00 Build 0)  -->
<svg version="1.1" id="Calque_1" xmlns="http://www.w3.org/2000/svg" xmlns:xlink="http://www.w3.org/1999/xlink" x="0px" y="0px"
	 viewBox="0 0 183 12" style="enable-background:new 0 0 183 12;" xml:space="preserve">
<style type="text/css">
	.st0{fill:#E5E5E5;}
	.st1{fill:#CBA15A;}
	.st2{fill:#FFFFFF;}
</style>
<rect id="Rectangle-12" class="st0" width="183" height="12"/>
<rect id="Rectangle-12-2" class="st1" width="183" height="12"/>
<path id="Combined-Shape" class="st2" d="M0,0h183v12H0V0z M6,12c3.3,0,6-2.7,6-6S9.3,0,6,0S0,2.7,0,6S2.7,12,6,12z M25,12
	c3.3,0,6-2.7,6-6s-2.7-6-6-6s-6,2.7-6,6S21.7,12,25,12z M44,12c3.3,0,6-2.7,6-6s-2.7-6-6-6s-6,2.7-6,6S40.7,12,44,12z M63,12
	c3.3,0,6-2.7,6-6s-2.7-6-6-6c-3.3,0-6,2.7-6,6S59.7,12,63,12z M82,12c3.3,0,6-2.7,6-6s-2.7-6-6-6s-6,2.7-6,6S78.7,12,82,12z M101,12
	c3.3,0,6-2.7,6-6s-2.7-6-6-6s-6,2.7-6,6S97.7,12,101,12z M120,12c3.3,0,6-2.7,6-6s-2.7-6-6-6s-6,2.7-6,6S116.7,12,120,12z M139,12
	c3.3,0,6-2.7,6-6s-2.7-6-6-6s-6,2.7-6,6S135.7,12,139,12z M158,12c3.3,0,6-2.7,6-6s-2.7-6-6-6s-6,2.7-6,6S154.7,12,158,12z M177,12
	c3.3,0,6-2.7,6-6s-2.7-6-6-6s-6,2.7-6,6S173.7,12,177,12z"/>
</svg>
