<?xml version="1.0" encoding="utf-8"?>
<!-- Generator: Adobe Illustrator 22.0.1, SVG Export Plug-In . SVG Version: 6.00 Build 0)  -->
<svg version="1.1" id="Calque_1" xmlns="http://www.w3.org/2000/svg" xmlns:xlink="http://www.w3.org/1999/xlink" x="0px" y="0px"
	 viewBox="0 0 392.1 32.3" style="enable-background:new 0 0 392.1 32.3;" xml:space="preserve">
<style type="text/css">
	.st0{fill:#E5E5E5;}
	.st1{fill:#CBA15A;}
	.st2{fill:#FFFFFF;}
</style>
<g id="Page-1">
	<g id="map__intensite">
		<rect id="Rectangle-12" x="16.4" y="7.2" class="st0" width="359.3" height="17.9"/>
		<rect id="Rectangle-12-2" x="16.4" y="7.2" class="st1" width="359.3" height="17.9"/>
		<path id="Combined-Shape" class="st2" d="M13,3.2h368v25.2H13V3.2z M25.4,25.1c4.9,0,8.9-4,8.9-8.9s-4-8.9-8.9-8.9s-8.9,4-8.9,8.9
			S20.4,25.1,25.4,25.1z M53.7,25.1c4.9,0,8.9-4,8.9-8.9s-4-8.9-8.9-8.9s-8.9,4-8.9,8.9S48.8,25.1,53.7,25.1z M82,25.1
			c4.9,0,8.9-4,8.9-8.9s-4-8.9-8.9-8.9s-8.9,4-8.9,8.9S77.1,25.1,82,25.1z M110.3,25.1c4.9,0,8.9-4,8.9-8.9s-4-8.9-8.9-8.9
			c-4.9,0-8.9,4-8.9,8.9S105.4,25.1,110.3,25.1z M138.7,25.1c4.9,0,8.9-4,8.9-8.9s-4-8.9-8.9-8.9c-4.9,0-8.9,4-8.9,8.9
			S133.8,25.1,138.7,25.1z M167,25.1c4.9,0,8.9-4,8.9-8.9s-4-8.9-8.9-8.9c-4.9,0-8.9,4-8.9,8.9S162.1,25.1,167,25.1z M195.3,25.1
			c4.9,0,8.9-4,8.9-8.9s-4-8.9-8.9-8.9s-8.9,4-8.9,8.9S190.4,25.1,195.3,25.1z M223.7,25.1c4.9,0,8.9-4,8.9-8.9s-4-8.9-8.9-8.9
			c-4.9,0-8.9,4-8.9,8.9S218.7,25.1,223.7,25.1z M252,25.1c4.9,0,8.9-4,8.9-8.9s-4-8.9-8.9-8.9c-4.9,0-8.9,4-8.9,8.9
			S247.1,25.1,252,25.1z M280.3,25.1c4.9,0,8.9-4,8.9-8.9s-4-8.9-8.9-8.9c-4.9,0-8.9,4-8.9,8.9S275.4,25.1,280.3,25.1z M310.1,25.1
			c4.9,0,8.9-4,8.9-8.9s-4-8.9-8.9-8.9c-4.9,0-8.9,4-8.9,8.9S305.2,25.1,310.1,25.1z M338.4,25.1c4.9,0,8.9-4,8.9-8.9
			s-4-8.9-8.9-8.9c-4.9,0-8.9,4-8.9,8.9S333.5,25.1,338.4,25.1z M366.8,25.1c4.9,0,8.9-4,8.9-8.9s-4-8.9-8.9-8.9s-8.9,4-8.9,8.9
			S361.9,25.1,366.8,25.1z"/>
	</g>
</g>
</svg>
