<?xml version="1.0" encoding="UTF-8"?>
<svg width="19px" height="15px" viewBox="0 0 19 15" version="1.1" xmlns="http://www.w3.org/2000/svg" xmlns:xlink="http://www.w3.org/1999/xlink">
    <!-- Generator: Sketch 47.1 (45422) - http://www.bohemiancoding.com/sketch -->
    <title>twitter-logo</title>
    <desc>Created with Sketch.</desc>
    <defs></defs>
    <g id="Home" stroke="none" stroke-width="1" fill="none" fill-rule="evenodd">
        <g id="Home-Page-Copy" transform="translate(-178.000000, -5229.000000)" fill-rule="nonzero" fill="#CBA15A">
            <g id="Footer" transform="translate(0.000000, 4978.000000)">
                <g id="social" transform="translate(40.000000, 251.000000)">
                    <g id="social__icons" transform="translate(103.000000, 0.000000)">
                        <g id="twitter-logo" transform="translate(35.000000, 0.000000)">
                            <path d="M18.4337349,1.78614458 C17.7560241,2.0873494 17.0271084,2.28915663 16.2620482,2.38253012 C17.0421687,1.91566265 17.6415663,1.17168675 17.9246988,0.292168675 C17.1927711,0.725903614 16.3825301,1.03915663 15.5210843,1.21084337 C14.8313253,0.475903614 13.8493976,0.015060241 12.7620482,0.015060241 C10.6746988,0.015060241 8.97891566,1.70783133 8.97891566,3.79518072 C8.97891566,4.09036145 9.01204819,4.37951807 9.07831325,4.65662651 C5.93674699,4.5 3.15060241,2.9939759 1.28313253,0.704819277 C0.957831325,1.26204819 0.771084337,1.9126506 0.771084337,2.60542169 C0.771084337,3.9186747 1.43975904,5.0753012 2.45180723,5.75301205 C1.8313253,5.73192771 1.25,5.56325301 0.737951807,5.27710843 L0.737951807,5.3253012 C0.737951807,7.15662651 2.04216867,8.68674699 3.77108434,9.03313253 C3.45481928,9.11746988 3.12048193,9.16566265 2.77409639,9.16566265 C2.53012048,9.16566265 2.29518072,9.14156627 2.06325301,9.09638554 C2.54518072,10.5993976 3.93975904,11.6927711 5.59638554,11.7228916 C4.30421687,12.7379518 2.67168675,13.3403614 0.90060241,13.3403614 C0.596385542,13.3403614 0.295180723,13.3222892 0,13.2891566 C1.6746988,14.3644578 3.65963855,14.9909639 5.79518072,14.9909639 C12.75,14.9909639 16.5542169,9.22891566 16.5542169,4.23192771 L16.5421687,3.74096386 C17.2861446,3.20783133 17.9277108,2.54216867 18.4337349,1.78614458 Z" id="Shape"></path>
                        </g>
                    </g>
                </g>
            </g>
        </g>
    </g>
</svg>